# xmcd
#
# Track frame offsets:
# 150
# 12885
# 25332
# 38755
# 52332
# 64620
# 77529
# 89460
# 102782
# 116337
# 129950
# 142540
# 155535
# 168555
# 179442
# 193115
# 205717
# 221155
# 235697
#
# Disc length: 3297 seconds
#
#
# Revision: 2
# Processed by: cddbd v1.5.1PL0 Copyright (c) Steve Scherf et al.
# Submitted via: FreeRIP 2.941 
#
DISCID=f80cdf13
DTITLE=Charlie Parker - Cool Blues 1947
DYEAR=1900
DGENRE=Jazz
TTITLE0=Cool Blues (take 4)
TTITLE1=Bird's Nest
TTITLE2=Relaxin' At Camarillo
TTITLE3=Cheers
TTITLE4=Carvin' The Bird
TTITLE5=Stupendous
TTITLE6=Donna Lee
TTITLE7=Chasing The Bird
TTITLE8=Cheryl
TTITLE9=Buzzy
TTITLE10=Milestones
TTITLE11=Little Willie Leaps
TTITLE12=Half Nelson
TTITLE13=Sippin' At Bells
TTITLE14=Dexterity
TTITLE15=Bongo Bop
TTITLE16=Embraceable You
TTITLE17=Bird Of Paradise
TTITLE18=The Hymn
EXTD=
EXTT0=
EXTT1=
EXTT2=
EXTT3=
EXTT4=
EXTT5=
EXTT6=
EXTT7=
EXTT8=
EXTT9=
EXTT10=
EXTT11=
EXTT12=
EXTT13=
EXTT14=
EXTT15=
EXTT16=
EXTT17=
EXTT18=
PLAYORDER=
